<svg width="30" height="30" viewBox="0 0 30 30" fill="none" xmlns="http://www.w3.org/2000/svg">
  <circle cx="15" cy="15" r="15" fill="white"/>
  <path d="M15 10.8C12.7 10.8 10.8 12.7 10.8 15C10.8 17.3 12.7 19.2 15 19.2C17.3 19.2 19.2 17.3 19.2 15C19.2 12.7 17.3 10.8 15 10.8ZM15 17.7C13.5 17.7 12.3 16.5 12.3 15C12.3 13.5 13.5 12.3 15 12.3C16.5 12.3 17.7 13.5 17.7 15C17.7 16.5 16.5 17.7 15 17.7Z" fill="#071629"/>
  <path d="M19.5 7.5H10.5C8.85 7.5 7.5 8.85 7.5 10.5V19.5C7.5 21.15 8.85 22.5 10.5 22.5H19.5C21.15 22.5 22.5 21.15 22.5 19.5V10.5C22.5 8.85 21.15 7.5 19.5 7.5ZM21 19.5C21 20.325 20.325 21 19.5 21H10.5C9.675 21 9 20.325 9 19.5V10.5C9 9.675 9.675 9 10.5 9H19.5C20.325 9 21 9.675 21 10.5V19.5Z" fill="#071629"/>
  <circle cx="19.5" cy="10.5" r="0.75" fill="#071629"/>
</svg>