<svg width="30" height="30" viewBox="0 0 30 30" fill="none" xmlns="http://www.w3.org/2000/svg">
  <circle cx="15" cy="15" r="15" fill="white"/>
  <path d="M21.5 11C20.9 11.3 20.3 11.4 19.6 11.5C20.3 11.1 20.8 10.5 21 9.8C20.4 10.2 19.7 10.4 18.9 10.5C18.3 9.9 17.5 9.5 16.6 9.5C14.8 9.5 13.3 11 13.3 12.8C13.3 13.1 13.3 13.3 13.4 13.5C10.6 13.4 8.2 12.1 6.5 10.2C6.2 10.7 6.1 11.2 6.1 11.8C6.1 12.9 6.7 13.9 7.6 14.5C7.1 14.5 6.6 14.3 6.1 14.1C6.1 15.7 7.2 17 8.7 17.3C8.4 17.4 8.1 17.4 7.8 17.4C7.6 17.4 7.3 17.4 7.1 17.3C7.6 18.6 8.8 19.5 10.3 19.5C9.2 20.4 7.7 20.9 6.1 20.9C5.8 20.9 5.5 20.9 5.3 20.8C6.8 21.7 8.6 22.3 10.5 22.3C16.6 22.3 19.9 17.5 19.9 13.2C19.9 13.1 19.9 12.9 19.9 12.8C20.5 12.3 21.1 11.7 21.5 11Z" fill="#071629"/>
</svg>